<svg width="1200" height="675" viewBox="0 0 1200 675" fill="none" xmlns="http://www.w3.org/2000/svg" role="img" aria-label="How to Make Jujutsu Infinite Videos">
  <defs>
    <linearGradient id="ccg-bg" x1="0" y1="0" x2="1200" y2="675" gradientUnits="userSpaceOnUse">
      <stop offset="0" stop-color="#0b0617"/>
      <stop offset="0.55" stop-color="#1e1145"/>
      <stop offset="1" stop-color="#2e1065"/>
    </linearGradient>
    <linearGradient id="ccg-accent" x1="0" y1="0" x2="1" y2="1">
      <stop offset="0" stop-color="#a78bfa"/>
      <stop offset="1" stop-color="#7c3aed"/>
    </linearGradient>
    <radialGradient id="ccg-glow" cx="0.78" cy="0.28" r="0.5">
      <stop offset="0" stop-color="#8b5cf6" stop-opacity="0.55"/>
      <stop offset="1" stop-color="#8b5cf6" stop-opacity="0"/>
    </radialGradient>
  </defs>
  <rect width="1200" height="675" fill="url(#ccg-bg)"/>
  <rect width="1200" height="675" fill="url(#ccg-glow)"/>
  <g opacity="0.08" stroke="#c4b5fd" stroke-width="1">
    <path d="M0 540 L1200 420"/>
    <path d="M0 600 L1200 480"/>
    <path d="M0 660 L1200 540"/>
  </g>
  <text x="80" y="150" font-family="Segoe UI, Arial, sans-serif" font-size="26" letter-spacing="6" font-weight="700" fill="#c4b5fd">JUJUTSU INFINITE · CREATOR GUIDE</text>
  <text x="80" y="280" font-family="Segoe UI, Arial, sans-serif" font-size="84" font-weight="800" fill="#ffffff">Make Videos</text>
  <text x="80" y="380" font-family="Segoe UI, Arial, sans-serif" font-size="84" font-weight="800" fill="url(#ccg-accent)">That Get Views</text>
  <text x="82" y="450" font-family="Segoe UI, Arial, sans-serif" font-size="30" font-weight="400" fill="#cbd5e1">Record · Script · AI Voiceover · Publish</text>

  <!-- play + mic motif -->
  <g transform="translate(905,300)">
    <circle cx="0" cy="0" r="150" fill="#ffffff" fill-opacity="0.05" stroke="#a78bfa" stroke-opacity="0.4" stroke-width="2"/>
    <circle cx="0" cy="0" r="92" fill="url(#ccg-accent)"/>
    <path d="M-26 -42 L48 0 L-26 42 Z" fill="#0b0617"/>
  </g>
  <g transform="translate(1010,470)" fill="#ffffff" opacity="0.9">
    <rect x="-15" y="-44" width="30" height="58" rx="15" fill="url(#ccg-accent)"/>
    <path d="M-26 -8 a26 26 0 0 0 52 0" fill="none" stroke="#ffffff" stroke-width="6" stroke-linecap="round"/>
    <line x1="0" y1="18" x2="0" y2="34" stroke="#ffffff" stroke-width="6" stroke-linecap="round"/>
  </g>
  <text x="80" y="620" font-family="Segoe UI, Arial, sans-serif" font-size="24" font-weight="600" fill="#a78bfa">jujutsuinfinitecodes.app</text>
</svg>
