<svg width="1200" height="675" viewBox="0 0 1200 675" fill="none" xmlns="http://www.w3.org/2000/svg" role="img" aria-label="Lightweight Next.js 16 Starter Template">
  <defs>
    <linearGradient id="nx-bg" x1="0" y1="0" x2="1200" y2="675" gradientUnits="userSpaceOnUse">
      <stop offset="0" stop-color="#0b0617"/>
      <stop offset="0.55" stop-color="#1e1145"/>
      <stop offset="1" stop-color="#2e1065"/>
    </linearGradient>
    <linearGradient id="nx-accent" x1="0" y1="0" x2="1" y2="1">
      <stop offset="0" stop-color="#a78bfa"/>
      <stop offset="1" stop-color="#7c3aed"/>
    </linearGradient>
    <radialGradient id="nx-glow" cx="0.8" cy="0.3" r="0.5">
      <stop offset="0" stop-color="#8b5cf6" stop-opacity="0.5"/>
      <stop offset="1" stop-color="#8b5cf6" stop-opacity="0"/>
    </radialGradient>
  </defs>
  <rect width="1200" height="675" fill="url(#nx-bg)"/>
  <rect width="1200" height="675" fill="url(#nx-glow)"/>

  <text x="80" y="150" font-family="Segoe UI, Arial, sans-serif" font-size="26" letter-spacing="6" font-weight="700" fill="#c4b5fd">STARTER TEMPLATE · GUIDE</text>
  <text x="80" y="280" font-family="Segoe UI, Arial, sans-serif" font-size="86" font-weight="800" fill="#ffffff">Next.js 16</text>
  <text x="80" y="380" font-family="Segoe UI, Arial, sans-serif" font-size="86" font-weight="800" fill="url(#nx-accent)">Starter Kit</text>
  <text x="82" y="450" font-family="Segoe UI, Arial, sans-serif" font-size="30" font-weight="400" fill="#cbd5e1">i18n · MDX Blog · SEO · Tailwind · TypeScript</text>

  <!-- code window motif -->
  <g transform="translate(800,235)">
    <rect x="0" y="0" width="330" height="210" rx="18" fill="#ffffff" fill-opacity="0.05" stroke="#a78bfa" stroke-opacity="0.45" stroke-width="2"/>
    <rect x="0" y="0" width="330" height="40" rx="18" fill="#a78bfa" fill-opacity="0.18"/>
    <circle cx="26" cy="20" r="6" fill="#f87171"/>
    <circle cx="50" cy="20" r="6" fill="#fbbf24"/>
    <circle cx="74" cy="20" r="6" fill="#34d399"/>
    <g stroke-linecap="round" stroke-width="8">
      <line x1="30" y1="78" x2="120" y2="78" stroke="#c4b5fd" stroke-opacity="0.8"/>
      <line x1="140" y1="78" x2="210" y2="78" stroke="#7c3aed"/>
      <line x1="55" y1="110" x2="175" y2="110" stroke="#a78bfa" stroke-opacity="0.7"/>
      <line x1="195" y1="110" x2="250" y2="110" stroke="#c4b5fd" stroke-opacity="0.5"/>
      <line x1="55" y1="142" x2="130" y2="142" stroke="#7c3aed"/>
      <line x1="150" y1="142" x2="290" y2="142" stroke="#a78bfa" stroke-opacity="0.6"/>
      <line x1="30" y1="174" x2="110" y2="174" stroke="#c4b5fd" stroke-opacity="0.7"/>
    </g>
  </g>
  <text x="80" y="620" font-family="Segoe UI, Arial, sans-serif" font-size="24" font-weight="600" fill="#a78bfa">jujutsuinfinitecodes.app</text>
</svg>
